<svg width="198" height="74" viewBox="0 0 198 74" fill="none" xmlns="http://www.w3.org/2000/svg">
<path d="M63.2391 65.5341H171.685V73.342H63.2391V65.5341Z" fill="#14C58F"/>
<path d="M64.6891 51.4295C64.3323 51.4295 64.0289 51.3056 63.7792 51.0579C63.5294 50.8102 63.4045 50.5094 63.4045 50.1556V25.1017C63.4045 24.7478 63.5294 24.447 63.7792 24.1993C64.0289 23.9516 64.3323 23.8278 64.6891 23.8278H68.8639C69.2208 23.8278 69.524 23.9516 69.7738 24.1993C70.0236 24.447 70.1485 24.7478 70.1485 25.1017V26.9064C70.8978 25.9156 71.8969 25.084 73.1458 24.4116C74.4304 23.7039 75.9469 23.3323 77.6953 23.297C81.7631 23.2262 84.5999 24.8009 86.2056 28.0211C87.0263 26.6056 88.2038 25.4732 89.7382 24.624C91.3082 23.7393 93.0388 23.297 94.93 23.297C96.7855 23.297 98.4626 23.7216 99.9612 24.5709C101.496 25.4202 102.691 26.7118 103.547 28.4457C104.439 30.1443 104.885 32.3029 104.885 34.9215V50.1556C104.885 50.5094 104.761 50.8102 104.511 51.0579C104.261 51.3056 103.958 51.4295 103.601 51.4295H99.2119C98.8551 51.4295 98.5518 51.3056 98.302 51.0579C98.0522 50.8102 97.9273 50.5094 97.9273 50.1556V35.3462C97.9273 33.7538 97.6954 32.4975 97.2315 31.5775C96.7676 30.622 96.1432 29.9497 95.3582 29.5604C94.5732 29.1712 93.6989 28.9765 92.7355 28.9765C91.9505 28.9765 91.1655 29.1712 90.3805 29.5604C89.5955 29.9497 88.9532 30.622 88.4536 31.5775C87.9541 32.4975 87.7043 33.7538 87.7043 35.3462V50.1556C87.7043 50.5094 87.5794 50.8102 87.3296 51.0579C87.0798 51.3056 86.7765 51.4295 86.4197 51.4295H82.0308C81.6383 51.4295 81.3171 51.3056 81.0673 51.0579C80.8532 50.8102 80.7462 50.5094 80.7462 50.1556V35.3462C80.7462 33.7538 80.4964 32.4975 79.9969 31.5775C79.4973 30.622 78.855 29.9497 78.07 29.5604C77.285 29.1712 76.4465 28.9765 75.5544 28.9765C74.7337 28.9765 73.9308 29.1889 73.1458 29.6135C72.3608 30.0028 71.7185 30.6574 71.219 31.5775C70.7194 32.4975 70.4697 33.7538 70.4697 35.3462V50.1556C70.4697 50.5094 70.3447 50.8102 70.095 51.0579C69.8452 51.3056 69.5419 51.4295 69.1851 51.4295H64.6891Z" fill="white"/>
<path d="M125.832 51.9603C121.871 51.9603 118.731 50.8279 116.411 48.5632C114.092 46.2984 112.843 43.0782 112.665 38.9026C112.629 38.5487 112.611 38.1063 112.611 37.5755C112.611 37.0094 112.629 36.567 112.665 36.2485C112.807 33.5945 113.414 31.2944 114.485 29.3481C115.591 27.4018 117.107 25.9156 119.034 24.8894C120.961 23.8278 123.227 23.297 125.832 23.297C128.722 23.297 131.148 23.8985 133.111 25.1017C135.073 26.2694 136.554 27.9149 137.553 30.0381C138.552 32.126 139.052 34.55 139.052 37.3101V38.4248C139.052 38.7787 138.927 39.0795 138.677 39.3272C138.428 39.5749 138.106 39.6988 137.714 39.6988H119.944C119.944 39.6988 119.944 39.7518 119.944 39.858C119.944 39.9642 119.944 40.0526 119.944 40.1234C119.98 41.3619 120.212 42.512 120.64 43.5736C121.104 44.5998 121.764 45.4314 122.62 46.0684C123.512 46.7053 124.565 47.0238 125.778 47.0238C126.777 47.0238 127.616 46.8823 128.294 46.5992C128.972 46.2807 129.525 45.9268 129.953 45.5376C130.381 45.1483 130.684 44.8299 130.863 44.5821C131.184 44.1575 131.434 43.9098 131.612 43.839C131.826 43.7329 132.13 43.6798 132.522 43.6798H137.125C137.482 43.6798 137.767 43.7859 137.981 43.9983C138.231 44.2106 138.338 44.476 138.303 44.7945C138.267 45.3607 137.964 46.0507 137.393 46.8646C136.857 47.6785 136.072 48.4747 135.038 49.2532C134.003 50.0317 132.701 50.6864 131.13 51.2172C129.596 51.7126 127.83 51.9603 125.832 51.9603ZM119.944 35.24H131.773V35.0808C131.773 33.7007 131.541 32.4975 131.077 31.4713C130.613 30.4451 129.935 29.6312 129.043 29.0296C128.151 28.428 127.08 28.1273 125.832 28.1273C124.583 28.1273 123.512 28.428 122.62 29.0296C121.728 29.6312 121.05 30.4451 120.586 31.4713C120.158 32.4975 119.944 33.7007 119.944 35.0808V35.24Z" fill="white"/>
<path d="M158.864 51.9603C154.903 51.9603 151.763 50.8279 149.444 48.5632C147.124 46.2984 145.875 43.0782 145.697 38.9026C145.661 38.5487 145.643 38.1063 145.643 37.5755C145.643 37.0094 145.661 36.567 145.697 36.2485C145.84 33.5945 146.446 31.2944 147.517 29.3481C148.623 27.4018 150.139 25.9156 152.066 24.8894C153.993 23.8278 156.259 23.297 158.864 23.297C161.754 23.297 164.18 23.8985 166.143 25.1017C168.105 26.2694 169.586 27.9149 170.585 30.0381C171.585 32.126 172.084 34.55 172.084 37.3101V38.4248C172.084 38.7787 171.959 39.0795 171.709 39.3272C171.46 39.5749 171.138 39.6988 170.746 39.6988H152.976C152.976 39.6988 152.976 39.7518 152.976 39.858C152.976 39.9642 152.976 40.0526 152.976 40.1234C153.012 41.3619 153.244 42.512 153.672 43.5736C154.136 44.5998 154.796 45.4314 155.652 46.0684C156.544 46.7053 157.597 47.0238 158.81 47.0238C159.809 47.0238 160.648 46.8823 161.326 46.5992C162.004 46.2807 162.557 45.9268 162.985 45.5376C163.413 45.1483 163.717 44.8299 163.895 44.5821C164.216 44.1575 164.466 43.9098 164.644 43.839C164.858 43.7329 165.162 43.6798 165.554 43.6798H170.157C170.514 43.6798 170.799 43.7859 171.014 43.9983C171.263 44.2106 171.37 44.476 171.335 44.7945C171.299 45.3607 170.996 46.0507 170.425 46.8646C169.89 47.6785 169.105 48.4747 168.07 49.2532C167.035 50.0317 165.733 50.6864 164.163 51.2172C162.628 51.7126 160.862 51.9603 158.864 51.9603ZM152.976 35.24H164.805V35.0808C164.805 33.7007 164.573 32.4975 164.109 31.4713C163.645 30.4451 162.967 29.6312 162.075 29.0296C161.183 28.428 160.113 28.1273 158.864 28.1273C157.615 28.1273 156.544 28.428 155.652 29.0296C154.76 29.6312 154.082 30.4451 153.618 31.4713C153.19 32.4975 152.976 33.7007 152.976 35.0808V35.24Z" fill="white"/>
<path d="M192.38 51.4295C190.239 51.4295 188.437 51.0579 186.974 50.3148C185.511 49.5717 184.423 48.4747 183.709 47.0238C182.996 45.5376 182.639 43.6975 182.639 41.5035V29.4543H178.41C178.054 29.4543 177.75 29.3304 177.5 29.0827C177.251 28.835 177.126 28.5342 177.126 28.1803V25.1017C177.126 24.7478 177.251 24.447 177.5 24.1993C177.75 23.9516 178.054 23.8278 178.41 23.8278H182.639V15.0164C182.639 14.6626 182.746 14.3618 182.96 14.1141C183.21 13.8664 183.531 13.7425 183.923 13.7425H188.259C188.616 13.7425 188.919 13.8664 189.169 14.1141C189.418 14.3618 189.543 14.6626 189.543 15.0164V23.8278H196.234C196.591 23.8278 196.894 23.9516 197.144 24.1993C197.393 24.447 197.518 24.7478 197.518 25.1017V28.1803C197.518 28.5342 197.393 28.835 197.144 29.0827C196.894 29.3304 196.591 29.4543 196.234 29.4543H189.543V40.9727C189.543 42.4235 189.793 43.5559 190.293 44.3698C190.828 45.1837 191.738 45.5907 193.022 45.5907H196.715C197.072 45.5907 197.376 45.7145 197.625 45.9622C197.875 46.2099 198 46.5107 198 46.8646V50.1556C198 50.5094 197.875 50.8102 197.625 51.0579C197.376 51.3056 197.072 51.4295 196.715 51.4295H192.38Z" fill="white"/>
<path d="M173.899 65.6144C173.814 65.6144 173.745 65.588 173.691 65.5351C173.638 65.4716 173.611 65.3976 173.611 65.313C173.611 65.2389 173.627 65.1702 173.659 65.1067L174.683 62.4726C174.737 62.3669 174.801 62.277 174.875 62.2029C174.95 62.1183 175.062 62.076 175.211 62.076H176.027C176.113 62.076 176.182 62.1077 176.235 62.1712C176.299 62.2346 176.321 62.3193 176.299 62.425L175.883 65.1067C175.873 65.2336 175.825 65.35 175.739 65.4558C175.654 65.5616 175.531 65.6144 175.371 65.6144H173.899Z" fill="white"/>
<path d="M178.746 73.342C178.639 73.342 178.549 73.305 178.474 73.2309C178.399 73.1569 178.362 73.067 178.362 72.9612V72.1519C178.362 72.0567 178.383 71.9456 178.426 71.8187C178.479 71.6812 178.591 71.5437 178.762 71.4062L181.29 68.9149C181.994 68.3648 182.56 67.8994 182.986 67.5186C183.424 67.1272 183.738 66.7728 183.93 66.4554C184.133 66.1275 184.234 65.8049 184.234 65.4875C184.234 65.0115 184.101 64.6254 183.834 64.3292C183.578 64.033 183.168 63.8849 182.602 63.8849C182.229 63.8849 181.914 63.9642 181.658 64.1229C181.402 64.271 181.2 64.472 181.05 64.7259C180.912 64.9797 180.816 65.2601 180.762 65.5668C180.741 65.7044 180.682 65.7996 180.586 65.8525C180.49 65.9053 180.394 65.9318 180.298 65.9318H178.874C178.778 65.9318 178.698 65.9001 178.634 65.8366C178.57 65.7731 178.538 65.6991 178.538 65.6144C178.549 65.1596 178.645 64.7206 178.826 64.2974C179.007 63.8637 179.269 63.4829 179.61 63.155C179.962 62.8164 180.389 62.5467 180.89 62.3457C181.392 62.1447 181.957 62.0442 182.586 62.0442C183.472 62.0442 184.202 62.1923 184.778 62.4885C185.365 62.7847 185.802 63.1867 186.09 63.6945C186.389 64.2022 186.538 64.7735 186.538 65.4082C186.538 65.9054 186.442 66.3655 186.25 66.7887C186.058 67.2012 185.781 67.6032 185.418 67.9946C185.056 68.3754 184.618 68.7668 184.106 69.1688L181.834 71.4538H186.394C186.512 71.4538 186.602 71.4908 186.666 71.5648C186.741 71.6283 186.778 71.7182 186.778 71.8346V72.9612C186.778 73.067 186.741 73.1569 186.666 73.2309C186.602 73.305 186.512 73.342 186.394 73.342H178.746Z" fill="white"/>
<path d="M40.7265 57.5394H52.6474V73.3022H40.7265V57.5394Z" fill="#369FFF"/>
<path d="M40.7266 49.6579L40.7265 57.5394L48.6739 57.5394C44.2847 57.5394 40.7266 54.0107 40.7266 49.6579Z" fill="#369FFF"/>
<path d="M40.7265 21.889H52.6474V37.6518H40.7265V21.889Z" fill="#369FFF"/>
<path d="M24.832 1.0559H40.7266L40.7265 73.3022C31.9482 73.3022 24.832 66.245 24.832 57.5394V1.0559Z" fill="#369FFF"/>
<path d="M0 21.8891H15.8946V73.3023H0V21.8891Z" fill="#369FFF"/>
<path d="M7.94728 0L14.8298 3.94071V11.8221L7.94728 15.7628L1.06474 11.8221V3.94071L7.94728 0Z" fill="#14C58F"/>
<path d="M5.69342 4.85859C5.64847 4.65233 5.87614 4.49424 6.0562 4.60667L11.2037 7.82092C11.3785 7.93003 11.3421 8.19246 11.1442 8.25085L8.89167 8.91533C8.84143 8.93015 8.79746 8.96085 8.76646 9.00276L7.40619 10.8419C7.2837 11.0075 7.02146 10.952 6.97771 10.7513L5.69342 4.85859Z" fill="white"/>
<path d="M191.683 73.5897C191.09 73.5897 190.486 73.517 189.871 73.3715C189.255 73.226 188.69 73.0027 188.176 72.7013C187.963 72.5767 187.818 72.4312 187.739 72.265C187.672 72.0883 187.655 71.9169 187.689 71.7506C187.734 71.574 187.818 71.4285 187.941 71.3143C188.075 71.1896 188.232 71.1168 188.411 71.0961C188.601 71.0753 188.808 71.122 189.032 71.2363C189.446 71.4545 189.865 71.6208 190.29 71.7351C190.716 71.8493 191.169 71.9065 191.65 71.9065C192.12 71.9065 192.523 71.8286 192.858 71.6727C193.194 71.5169 193.451 71.2987 193.63 71.0181C193.809 70.7376 193.899 70.4103 193.899 70.0363C193.899 69.4544 193.709 68.9869 193.328 68.6336C192.948 68.27 192.427 68.0881 191.767 68.0881C191.409 68.0881 191.062 68.1453 190.727 68.2596C190.391 68.3635 190.061 68.5505 189.736 68.8206C189.636 68.9037 189.507 68.9869 189.35 69.07C189.194 69.1427 189.026 69.1791 188.847 69.1791C188.567 69.1791 188.355 69.1116 188.209 68.9765C188.064 68.8414 187.991 68.6544 187.991 68.4154V63.3191C187.991 63.0385 188.069 62.8255 188.226 62.6801C188.394 62.5242 188.629 62.4463 188.931 62.4463H194.453C194.755 62.4463 194.984 62.519 195.141 62.6645C195.309 62.7996 195.392 63.0022 195.392 63.2723C195.392 63.5321 195.309 63.7347 195.141 63.8801C194.984 64.0256 194.755 64.0983 194.453 64.0983H190.089V67.5894H189.535C189.826 67.2257 190.212 66.9452 190.693 66.7478C191.174 66.5504 191.7 66.4517 192.271 66.4517C193.02 66.4517 193.669 66.6023 194.218 66.9037C194.777 67.1946 195.208 67.605 195.51 68.1349C195.823 68.6544 195.98 69.2622 195.98 69.9583C195.98 70.6753 195.806 71.3091 195.46 71.8597C195.113 72.4 194.615 72.826 193.966 73.1377C193.328 73.439 192.567 73.5897 191.683 73.5897Z" fill="white"/>
</svg>
