<svg width="1985" height="738" viewBox="0 0 1985 738" fill="none" xmlns="http://www.w3.org/2000/svg">
<path d="M633.855 656.859H1720.83V735.119H633.855V656.859Z" fill="#14C58F"/>
<path d="M648.389 515.486C644.813 515.486 641.773 514.245 639.269 511.762C636.766 509.279 635.514 506.264 635.514 502.718V251.598C635.514 248.051 636.766 245.037 639.269 242.554C641.773 240.071 644.813 238.83 648.389 238.83H690.234C693.811 238.83 696.851 240.071 699.355 242.554C701.858 245.037 703.11 248.051 703.11 251.598V269.687C710.621 259.756 720.635 251.421 733.153 244.682C746.028 237.588 761.228 233.864 778.753 233.509C819.526 232.8 847.959 248.583 864.053 280.86C872.279 266.673 884.082 255.323 899.461 246.81C915.197 237.943 932.543 233.509 951.499 233.509C970.097 233.509 986.906 237.765 1001.93 246.278C1017.31 254.79 1029.29 267.737 1037.87 285.116C1046.81 302.141 1051.28 323.777 1051.28 350.024V502.718C1051.28 506.264 1050.03 509.279 1047.53 511.762C1045.02 514.245 1041.98 515.486 1038.41 515.486H994.417C990.841 515.486 987.801 514.245 985.297 511.762C982.794 509.279 981.542 506.264 981.542 502.718V354.281C981.542 338.32 979.217 325.728 974.568 316.506C969.918 306.93 963.659 300.191 955.791 296.289C947.922 292.387 939.16 290.437 929.503 290.437C921.635 290.437 913.767 292.387 905.898 296.289C898.03 300.191 891.592 306.93 886.585 316.506C881.578 325.728 879.075 338.32 879.075 354.281V502.718C879.075 506.264 877.823 509.279 875.319 511.762C872.816 514.245 869.776 515.486 866.199 515.486H822.208C818.274 515.486 815.055 514.245 812.551 511.762C810.405 509.279 809.332 506.264 809.332 502.718V354.281C809.332 338.32 806.829 325.728 801.822 316.506C796.815 306.93 790.377 300.191 782.509 296.289C774.64 292.387 766.236 290.437 757.294 290.437C749.068 290.437 741.021 292.565 733.153 296.821C725.284 300.723 718.847 307.284 713.839 316.506C708.832 325.728 706.329 338.32 706.329 354.281V502.718C706.329 506.264 705.077 509.279 702.573 511.762C700.07 514.245 697.03 515.486 693.453 515.486H648.389Z" fill="#48555E"/>
<path d="M1261.23 520.807C1221.53 520.807 1190.06 509.457 1166.81 486.757C1143.56 464.056 1131.05 431.78 1129.26 389.927C1128.9 386.38 1128.72 381.946 1128.72 376.626C1128.72 370.951 1128.9 366.517 1129.26 363.325C1130.69 336.723 1136.77 313.669 1147.5 294.161C1158.58 274.653 1173.79 259.756 1193.1 249.47C1212.41 238.83 1235.12 233.509 1261.23 233.509C1290.2 233.509 1314.52 239.539 1334.19 251.598C1353.86 263.303 1368.7 279.796 1378.72 301.077C1388.73 322.004 1393.74 346.3 1393.74 373.966V385.138C1393.74 388.685 1392.49 391.7 1389.99 394.183C1387.48 396.666 1384.26 397.907 1380.33 397.907H1202.22C1202.22 397.907 1202.22 398.439 1202.22 399.503C1202.22 400.567 1202.22 401.454 1202.22 402.163C1202.58 414.577 1204.9 426.105 1209.19 436.745C1213.84 447.031 1220.46 455.367 1229.04 461.751C1237.98 468.135 1248.53 471.328 1260.69 471.328C1270.71 471.328 1279.11 469.909 1285.91 467.071C1292.7 463.879 1298.25 460.332 1302.54 456.431C1306.83 452.529 1309.87 449.337 1311.66 446.854C1314.88 442.598 1317.38 440.115 1319.17 439.406C1321.32 438.342 1324.36 437.81 1328.29 437.81H1374.43C1378 437.81 1380.87 438.874 1383.01 441.002C1385.51 443.13 1386.59 445.79 1386.23 448.982C1385.87 454.657 1382.83 461.574 1377.11 469.732C1371.75 477.889 1363.88 485.87 1353.5 493.673C1343.13 501.476 1330.08 508.038 1314.34 513.358C1298.96 518.324 1281.26 520.807 1261.23 520.807ZM1202.22 353.216H1320.78V351.62C1320.78 337.788 1318.46 325.728 1313.81 315.442C1309.16 305.156 1302.36 296.998 1293.42 290.969C1284.48 284.939 1273.75 281.924 1261.23 281.924C1248.71 281.924 1237.98 284.939 1229.04 290.969C1220.1 296.998 1213.31 305.156 1208.66 315.442C1204.36 325.728 1202.22 337.788 1202.22 351.62V353.216Z" fill="#48555E"/>
<path d="M1592.32 520.807C1552.62 520.807 1521.14 509.457 1497.9 486.757C1474.65 464.056 1462.13 431.78 1460.34 389.927C1459.99 386.38 1459.81 381.946 1459.81 376.626C1459.81 370.951 1459.99 366.517 1460.34 363.325C1461.77 336.723 1467.85 313.669 1478.58 294.161C1489.67 274.653 1504.87 259.756 1524.18 249.47C1543.5 238.83 1566.21 233.509 1592.32 233.509C1621.29 233.509 1645.61 239.539 1665.28 251.598C1684.95 263.303 1699.79 279.796 1709.81 301.077C1719.82 322.004 1724.83 346.3 1724.83 373.966V385.138C1724.83 388.685 1723.58 391.7 1721.07 394.183C1718.57 396.666 1715.35 397.907 1711.41 397.907H1533.3C1533.3 397.907 1533.3 398.439 1533.3 399.503C1533.3 400.567 1533.3 401.454 1533.3 402.163C1533.66 414.577 1535.99 426.105 1540.28 436.745C1544.93 447.031 1551.54 455.367 1560.13 461.751C1569.07 468.135 1579.62 471.328 1591.78 471.328C1601.79 471.328 1610.2 469.909 1617 467.071C1623.79 463.879 1629.33 460.332 1633.63 456.431C1637.92 452.529 1640.96 449.337 1642.75 446.854C1645.96 442.598 1648.47 440.115 1650.26 439.406C1652.4 438.342 1655.44 437.81 1659.38 437.81H1705.51C1709.09 437.81 1711.95 438.874 1714.1 441.002C1716.6 443.13 1717.67 445.79 1717.32 448.982C1716.96 454.657 1713.92 461.574 1708.2 469.732C1702.83 477.889 1694.96 485.87 1684.59 493.673C1674.22 501.476 1661.16 508.038 1645.43 513.358C1630.05 518.324 1612.35 520.807 1592.32 520.807ZM1533.3 353.216H1651.87V351.62C1651.87 337.788 1649.54 325.728 1644.89 315.442C1640.24 305.156 1633.45 296.998 1624.51 290.969C1615.56 284.939 1604.83 281.924 1592.32 281.924C1579.8 281.924 1569.07 284.939 1560.13 290.969C1551.19 296.998 1544.39 305.156 1539.74 315.442C1535.45 325.728 1533.3 337.788 1533.3 351.62V353.216Z" fill="#48555E"/>
<path d="M1928.26 515.486C1906.8 515.486 1888.74 511.762 1874.07 504.314C1859.41 496.865 1848.5 485.87 1841.35 471.328C1834.19 456.431 1830.62 437.987 1830.62 415.996V295.225H1788.24C1784.66 295.225 1781.62 293.984 1779.12 291.501C1776.61 289.018 1775.36 286.003 1775.36 282.456V251.598C1775.36 248.051 1776.61 245.037 1779.12 242.554C1781.62 240.071 1784.66 238.83 1788.24 238.83H1830.62V150.512C1830.62 146.965 1831.69 143.95 1833.84 141.468C1836.34 138.985 1839.56 137.743 1843.49 137.743H1886.95C1890.52 137.743 1893.56 138.985 1896.07 141.468C1898.57 143.95 1899.82 146.965 1899.82 150.512V238.83H1966.88C1970.46 238.83 1973.5 240.071 1976 242.554C1978.51 245.037 1979.76 248.051 1979.76 251.598V282.456C1979.76 286.003 1978.51 289.018 1976 291.501C1973.5 293.984 1970.46 295.225 1966.88 295.225H1899.82V410.676C1899.82 425.218 1902.33 436.568 1907.33 444.726C1912.7 452.884 1921.82 456.963 1934.69 456.963H1971.71C1975.29 456.963 1978.33 458.204 1980.83 460.687C1983.33 463.17 1984.59 466.185 1984.59 469.732V502.718C1984.59 506.264 1983.33 509.279 1980.83 511.762C1978.33 514.245 1975.29 515.486 1971.71 515.486H1928.26Z" fill="#48555E"/>
<path d="M1743.02 657.664C1742.16 657.664 1741.47 657.399 1740.94 656.869C1740.4 656.233 1740.13 655.491 1740.13 654.643C1740.13 653.9 1740.29 653.211 1740.61 652.575L1750.88 626.174C1751.41 625.113 1752.05 624.212 1752.8 623.47C1753.55 622.622 1754.67 622.198 1756.17 622.198H1764.35C1765.21 622.198 1765.9 622.516 1766.43 623.152C1767.08 623.788 1767.29 624.636 1767.08 625.697L1762.91 652.575C1762.8 653.847 1762.32 655.014 1761.46 656.074C1760.61 657.134 1759.38 657.664 1757.77 657.664H1743.02Z" fill="#48555E"/>
<path d="M1791.6 735.119C1790.53 735.119 1789.62 734.748 1788.88 734.006C1788.13 733.264 1787.75 732.362 1787.75 731.302V723.191C1787.75 722.236 1787.97 721.123 1788.39 719.851C1788.93 718.472 1790.05 717.094 1791.76 715.716L1817.1 690.746C1824.16 685.232 1829.82 680.567 1834.1 676.75C1838.48 672.827 1841.64 669.275 1843.56 666.094C1845.59 662.807 1846.61 659.573 1846.61 656.392C1846.61 651.621 1845.27 647.751 1842.6 644.782C1840.03 641.813 1835.92 640.329 1830.25 640.329C1826.51 640.329 1823.36 641.124 1820.79 642.714C1818.22 644.199 1816.19 646.213 1814.7 648.758C1813.31 651.303 1812.34 654.112 1811.81 657.187C1811.6 658.566 1811.01 659.52 1810.04 660.05C1809.08 660.58 1808.12 660.845 1807.16 660.845H1792.89C1791.92 660.845 1791.12 660.527 1790.48 659.891C1789.84 659.255 1789.52 658.513 1789.52 657.664C1789.62 653.105 1790.59 648.705 1792.4 644.464C1794.22 640.117 1796.84 636.299 1800.26 633.013C1803.79 629.62 1808.07 626.916 1813.09 624.901C1818.12 622.887 1823.78 621.879 1830.09 621.879C1838.97 621.879 1846.29 623.364 1852.06 626.333C1857.94 629.301 1862.33 633.331 1865.21 638.42C1868.21 643.51 1869.7 649.235 1869.7 655.597C1869.7 660.58 1868.74 665.192 1866.82 669.434C1864.89 673.569 1862.11 677.598 1858.48 681.521C1854.84 685.338 1850.46 689.261 1845.33 693.29L1822.55 716.193H1868.26C1869.44 716.193 1870.35 716.564 1870.99 717.306C1871.74 717.942 1872.11 718.844 1872.11 720.01V731.302C1872.11 732.362 1871.74 733.264 1870.99 734.006C1870.35 734.748 1869.44 735.119 1868.26 735.119H1791.6Z" fill="#48555E"/>
<path d="M408.209 576.727H527.694V734.72H408.209V576.727Z" fill="#369FFF"/>
<path d="M408.209 497.73L408.209 576.727L487.866 576.727C443.873 576.727 408.209 541.358 408.209 497.73Z" fill="#369FFF"/>
<path d="M408.209 219.397H527.694V377.391H408.209V219.397Z" fill="#369FFF"/>
<path d="M248.895 10.5834H408.209L408.209 734.72C320.222 734.72 248.895 663.985 248.895 576.727V10.5834Z" fill="#369FFF"/>
<path d="M0 219.398H159.314V734.721H0V219.398Z" fill="#369FFF"/>
<path d="M79.6569 0L148.642 39.4984V118.495L79.6569 157.994L10.6721 118.495V39.4984L79.6569 0Z" fill="#14C58F"/>
<path d="M57.0661 48.6984C56.6155 46.6311 58.8975 45.0465 60.7023 46.1734L112.297 78.3904C114.048 79.484 113.684 82.1144 111.7 82.6996L89.1227 89.3598C88.6191 89.5083 88.1784 89.8161 87.8677 90.2362L74.2334 108.67C73.0057 110.33 70.3772 109.774 69.9387 107.762L57.0661 48.6984Z" fill="white"/>
<path d="M1938.5 737.601C1932.54 737.601 1926.47 736.872 1920.28 735.414C1914.1 733.956 1908.42 731.717 1903.24 728.697C1901.11 727.447 1899.64 725.989 1898.86 724.323C1898.18 722.552 1898.01 720.834 1898.35 719.168C1898.8 717.397 1899.64 715.939 1900.88 714.794C1902.23 713.544 1903.81 712.815 1905.6 712.607C1907.52 712.399 1909.6 712.867 1911.85 714.013C1916.01 716.2 1920.22 717.866 1924.5 719.012C1928.77 720.157 1933.33 720.73 1938.16 720.73C1942.88 720.73 1946.93 719.949 1950.31 718.387C1953.68 716.825 1956.27 714.638 1958.07 711.826C1959.87 709.014 1960.77 705.734 1960.77 701.984C1960.77 696.153 1958.85 691.466 1955.03 687.925C1951.21 684.28 1945.98 682.458 1939.34 682.458C1935.74 682.458 1932.26 683.031 1928.88 684.176C1925.51 685.218 1922.19 687.092 1918.93 689.8C1917.92 690.633 1916.63 691.466 1915.05 692.299C1913.48 693.028 1911.79 693.393 1909.99 693.393C1907.18 693.393 1905.04 692.716 1903.58 691.362C1902.12 690.008 1901.39 688.134 1901.39 685.738V634.657C1901.39 631.845 1902.17 629.71 1903.75 628.252C1905.44 626.69 1907.8 625.909 1910.83 625.909H1966.33C1969.37 625.909 1971.67 626.638 1973.25 628.096C1974.94 629.45 1975.78 631.48 1975.78 634.188C1975.78 636.792 1974.94 638.822 1973.25 640.28C1971.67 641.738 1969.37 642.467 1966.33 642.467H1922.47V677.459H1916.91C1919.83 673.814 1923.71 671.002 1928.55 669.024C1933.38 667.045 1938.67 666.056 1944.4 666.056C1951.94 666.056 1958.46 667.566 1963.97 670.586C1969.59 673.502 1973.92 677.615 1976.96 682.926C1980.11 688.134 1981.68 694.226 1981.68 701.203C1981.68 708.389 1979.94 714.742 1976.45 720.261C1972.97 725.677 1967.96 729.947 1961.44 733.071C1955.03 736.091 1947.38 737.601 1938.5 737.601Z" fill="#48555E"/>
</svg>
